<svg id="icons" enable-background="new 0 0 64 64" height="512" viewBox="0 0 64 64" width="512" xmlns="http://www.w3.org/2000/svg"><g><g><path d="m20.799 45.21-.79.79h-3c-1.1 0-2-.89-2-2v-24c0-1.11.89-2 2-2.01h.01 2.99l.79.79 2.21 2.22v11 11z" fill="#ed5565"/></g><g><path d="m33.009 14c9.94 0 18 8.06 18 18 0 9.93-8.06 18-18 18-4.71 0-9-1.82-12.21-4.79l2.21-2.21v-11c0 1.03.16 2.07.49 3.09 1.71 5.25 7.35 8.13 12.6 6.42 5.25-1.7 8.13-7.35 6.42-12.6-1.7-5.25-7.35-8.13-12.6-6.42-4.23 1.38-6.91 5.3-6.91 9.51v-11l-2.21-2.22c3.21-2.97 7.5-4.78 12.21-4.78z" fill="#e6e9ed"/></g><g><g><path d="m10.088 54.92c-.256 0-.512-.098-.707-.293-6.045-6.044-9.373-14.08-9.373-22.627s3.329-16.583 9.373-22.627c11.157-11.159 28.531-12.569 41.313-3.357.448.323.549.948.227 1.396-.322.446-.948.548-1.396.227-11.981-8.638-28.27-7.313-38.729 3.148-5.667 5.667-8.788 13.2-8.788 21.213s3.12 15.547 8.787 21.213c.391.391.391 1.023 0 1.414-.195.195-.451.293-.707.293z" fill="#656d78"/></g><g><path d="m32.012 64.049c-6.506.001-13.045-1.996-18.69-6.064-.448-.323-.549-.948-.227-1.396.322-.447.947-.55 1.396-.227 11.983 8.638 28.271 7.313 38.73-3.149 11.696-11.697 11.696-30.729 0-42.426-.391-.391-.391-1.023 0-1.414s1.023-.391 1.414 0c12.477 12.477 12.477 32.777 0 45.254-6.23 6.23-14.399 9.422-22.623 9.422z" fill="#656d78"/></g><g><g><path d="m56.399 11.431c-.047 0-.095-.003-.143-.01l-2.475-.354c-.547-.078-.927-.585-.849-1.132s.587-.925 1.132-.849l2.476.354c.547.078.927.585.849 1.132-.072.499-.499.859-.99.859z" fill="#656d78"/></g><g><path d="m53.571 13.552c-.047 0-.095-.003-.143-.01-.547-.078-.927-.585-.849-1.132l.354-2.475c.078-.547.587-.925 1.132-.849.547.078.927.585.849 1.132l-.354 2.475c-.071.499-.498.859-.989.859z" fill="#656d78"/></g><g><path d="m10.089 54.92c-.047 0-.095-.003-.143-.01l-2.475-.354c-.547-.078-.927-.585-.849-1.132.078-.546.583-.925 1.132-.849l2.475.354c.547.078.927.585.849 1.132-.071.5-.499.859-.989.859z" fill="#656d78"/></g><g><path d="m10.089 54.92c-.047 0-.095-.003-.143-.01-.547-.078-.927-.585-.849-1.132l.354-2.475c.078-.547.586-.924 1.132-.849.547.078.927.585.849 1.132l-.354 2.475c-.071.5-.499.859-.989.859z" fill="#656d78"/></g></g></g><path d="m42.519 28.91c-1.7-5.25-7.35-8.13-12.6-6.42-4.23 1.38-6.91 5.3-6.91 9.51 0 1.03.16 2.07.49 3.09 1.71 5.25 7.35 8.13 12.6 6.42 5.25-1.7 8.13-7.35 6.42-12.6zm-9.491-4.91h.011c.552 0 1 .447 1 1s-.448 1-1 1c-.553 0-1.005-.447-1.005-1s.443-1 .994-1zm-6.647 6.837c-.553 0-1.005-.447-1.005-1s.442-1 .994-1h.011c.552 0 1 .447 1 1s-.448 1-1 1zm2.543 7.827c-.553 0-1.005-.447-1.005-1s.442-1 .994-1h.011c.552 0 1 .447 1 1s-.448 1-1 1zm4.085-2.664c-2.21 0-4-1.79-4-4s1.79-4 4-4 4 1.79 4 4-1.79 4-4 4zm4.145 2.664c-.553 0-1.005-.447-1.005-1s.442-1 .994-1h.011c.552 0 1 .447 1 1s-.448 1-1 1zm2.543-7.827c-.553 0-1.005-.447-1.005-1s.442-1 .994-1h.011c.552 0 1 .447 1 1s-.448 1-1 1z" fill="#ccd1d9"/><g><g><path d="m33.039 20c-.553 0-1.005-.447-1.005-1s.442-1 .994-1h.011c.552 0 1 .447 1 1s-.448 1-1 1z" fill="#ccd1d9"/></g><g><path d="m34.102 18c-.553 0-1.005-.447-1.005-1s.442-1 .994-1h.011c.552 0 1 .447 1 1s-.449 1-1 1z" fill="#ccd1d9"/></g><g><path d="m33.039 46c-.553 0-1.005-.447-1.005-1s.442-1 .994-1h.011c.552 0 1 .447 1 1s-.448 1-1 1z" fill="#ccd1d9"/></g><g><path d="m32.039 48c-.553 0-1.005-.447-1.005-1s.442-1 .994-1h.011c.552 0 1 .447 1 1s-.448 1-1 1z" fill="#ccd1d9"/></g><g><path d="m28.595 20.795c-.553 0-1.005-.447-1.005-1s.442-1 .994-1h.011c.552 0 1 .447 1 1s-.449 1-1 1z" fill="#ccd1d9"/></g><g><path d="m28.909 18.552c-.553 0-1.005-.447-1.005-1s.442-1 .994-1h.011c.552 0 1 .447 1 1s-.448 1-1 1z" fill="#ccd1d9"/></g><g><path d="m37.487 45.227c-.553 0-1.005-.447-1.005-1s.442-1 .994-1h.011c.552 0 1 .447 1 1s-.448 1-1 1z" fill="#ccd1d9"/></g><g><path d="m37.231 47.447c-.553 0-1.005-.447-1.005-1s.442-1 .994-1h.011c.552 0 1 .447 1 1s-.448 1-1 1z" fill="#ccd1d9"/></g><g><path d="m24.69 23.062c-.553 0-1.005-.447-1.005-1s.442-1 .994-1h.011c.552 0 1 .447 1 1s-.448 1-1 1z" fill="#ccd1d9"/></g><g><path d="m24.219 20.847c-.553 0-1.005-.447-1.005-1s.442-1 .994-1h.011c.552 0 1 .447 1 1s-.448 1-1 1z" fill="#ccd1d9"/></g><g><path d="m41.403 42.979c-.553 0-1.005-.447-1.005-1s.442-1 .994-1h.011c.552 0 1 .447 1 1s-.448 1-1 1z" fill="#ccd1d9"/></g><g><path d="m41.922 45.152c-.553 0-1.005-.447-1.005-1s.442-1 .994-1h.011c.552 0 1 .447 1 1s-.448 1-1 1z" fill="#ccd1d9"/></g><g><path d="m44.313 39.527c-.553 0-1.005-.447-1.005-1s.442-1 .994-1h.011c.552 0 1 .447 1 1s-.448 1-1 1z" fill="#ccd1d9"/></g><g><path d="m45.545 41.392c-.553 0-1.005-.447-1.005-1s.442-1 .994-1h.011c.552 0 1 .447 1 1s-.448 1-1 1z" fill="#ccd1d9"/></g><g><path d="m45.868 35.288c-.553 0-1.005-.447-1.005-1s.442-1 .994-1h.011c.552 0 1 .447 1 1s-.448 1-1 1z" fill="#ccd1d9"/></g><g><path d="m47.663 36.619c-.553 0-1.005-.447-1.005-1s.442-1 .994-1h.011c.552 0 1 .447 1 1s-.448 1-1 1z" fill="#ccd1d9"/></g><g><path d="m45.879 30.772c-.553 0-1.005-.447-1.005-1s.442-1 .994-1h.011c.552 0 1 .447 1 1s-.448 1-1 1z" fill="#ccd1d9"/></g><g><path d="m48.021 31.41c-.553 0-1.005-.447-1.005-1s.442-1 .994-1h.011c.552 0 1 .447 1 1s-.449 1-1 1z" fill="#ccd1d9"/></g><g><path d="m44.345 26.525c-.553 0-1.005-.447-1.005-1s.442-1 .994-1h.011c.552 0 1 .447 1 1s-.449 1-1 1z" fill="#ccd1d9"/></g><g><path d="m46.575 26.393c-.553 0-1.005-.447-1.005-1s.442-1 .994-1h.011c.552 0 1 .447 1 1s-.448 1-1 1z" fill="#ccd1d9"/></g><g><path d="m24.739 42.978c-.553 0-1.005-.447-1.005-1s.442-1 .994-1h.011c.552 0 1 .447 1 1s-.448 1-1 1z" fill="#ccd1d9"/></g><g><path d="m41.45 23.06c-.553 0-1.005-.447-1.005-1s.442-1 .994-1h.011c.552 0 1 .447 1 1s-.448 1-1 1z" fill="#ccd1d9"/></g><g><path d="m43.501 22.172c-.553 0-1.005-.447-1.005-1s.442-1 .994-1h.011c.552 0 1 .447 1 1s-.448 1-1 1z" fill="#ccd1d9"/></g><g><path d="m28.654 45.226c-.553 0-1.005-.447-1.005-1s.442-1 .994-1h.011c.552 0 1 .447 1 1s-.448 1-1 1z" fill="#ccd1d9"/></g><g><path d="m26.972 46.742c-.553 0-1.005-.447-1.005-1s.442-1 .994-1h.011c.552 0 1 .447 1 1s-.449 1-1 1z" fill="#ccd1d9"/></g><g><path d="m37.546 20.793c-.553 0-1.005-.447-1.005-1s.442-1 .994-1h.011c.552 0 1 .447 1 1s-.448 1-1 1z" fill="#ccd1d9"/></g><g><path d="m39.169 19.257c-.553 0-1.005-.447-1.005-1s.442-1 .994-1h.011c.552 0 1 .447 1 1s-.448 1-1 1z" fill="#ccd1d9"/></g></g><g><path d="m19.013 41c-.553 0-1-.447-1-1v-16c0-.553.447-1 1-1s1 .447 1 1v16c0 .553-.448 1-1 1z" fill="#da4453"/></g></g></svg>